<svg width="14" height="14" viewBox="0 0 14 14" fill="none" xmlns="http://www.w3.org/2000/svg">
<path d="M3.22917 12.7667C3.32353 12.8158 3.42948 12.8383 3.53564 12.8317C3.6418 12.8251 3.74417 12.7897 3.83175 12.7294L11.4151 7.47938C11.4926 7.4257 11.5559 7.35403 11.5996 7.27053C11.6434 7.18702 11.6662 7.09415 11.6662 6.99988C11.6662 6.90562 11.6434 6.81275 11.5996 6.72924C11.5559 6.64573 11.4926 6.57407 11.4151 6.52038L3.83175 1.27038C3.74424 1.20983 3.64183 1.17437 3.5356 1.16785C3.42938 1.16132 3.3234 1.18398 3.22913 1.23337C3.13486 1.28275 3.0559 1.35699 3.00079 1.44803C2.94569 1.53908 2.91654 1.64346 2.9165 1.74988V12.2499C2.91649 12.3564 2.94561 12.4608 3.00073 12.5519C3.05585 12.643 3.13485 12.7173 3.22917 12.7667Z" fill="white"/>
</svg>
